<?xml version="1.0" encoding="UTF-8" standalone="no"?>
<svg
   width="23"
   height="23"
   viewBox="0 0 23 23"
   fill="none"
   version="1.1"
   id="svg6"
   sodipodi:docname="arb.svg"
   inkscape:version="1.3.2 (091e20e, 2023-11-25, custom)"
   xmlns:inkscape="http://www.inkscape.org/namespaces/inkscape"
   xmlns:sodipodi="http://sodipodi.sourceforge.net/DTD/sodipodi-0.dtd"
   xmlns="http://www.w3.org/2000/svg"
   xmlns:svg="http://www.w3.org/2000/svg">
  <sodipodi:namedview
     id="namedview6"
     pagecolor="#ffffff"
     bordercolor="#000000"
     borderopacity="0.25"
     inkscape:showpageshadow="2"
     inkscape:pageopacity="0.0"
     inkscape:pagecheckerboard="0"
     inkscape:deskcolor="#d1d1d1"
     inkscape:zoom="26.4375"
     inkscape:cx="14.50591"
     inkscape:cy="12.765957"
     inkscape:window-width="1920"
     inkscape:window-height="1111"
     inkscape:window-x="-9"
     inkscape:window-y="-9"
     inkscape:window-maximized="1"
     inkscape:current-layer="svg6" />
  <g
     clip-path="url(#clip0_971_20350)"
     id="g6"
     transform="matrix(0.72413793,0,0,0.71875,1,0)"
     style="fill-opacity:1;fill:#ffffff">
    <path
       d="m 16.9303,18.4316 -1.5866,4.2479 c -0.0468,0.1178 -0.0468,0.2487 0,0.3665 l 2.7246,7.3112 3.1531,-1.7804 -3.7823,-10.1452 c -0.0871,-0.2356 -0.4218,-0.2356 -0.5088,0 z"
       id="path1"
       style="fill-opacity:1;fill:#ffffff" />
    <path
       d="m 20.1031,11.2841 c -0.087,-0.2356 -0.4217,-0.2356 -0.5087,0 l -1.5866,4.2479 c -0.0469,0.1179 -0.0469,0.2488 0,0.3666 L 22.4729,27.87 25.626,26.0896 Z"
       id="path2"
       style="fill-opacity:1;fill:#ffffff" />
    <path
       d="m 14.5,1.98323 c 0.0803,0 0.154,0.01963 0.2276,0.05891 l 12.0231,6.78748 c 0.1406,0.07854 0.2276,0.22254 0.2276,0.37963 V 22.7842 c 0,0.1571 -0.087,0.3011 -0.2276,0.3796 l -12.0231,6.7941 c -0.0669,0.0392 -0.1473,0.0589 -0.2276,0.0589 -0.0803,0 -0.154,-0.0197 -0.2276,-0.0589 L 2.256,23.1704 C 2.11542,23.0918 2.02839,22.9478 2.02839,22.7908 V 9.20925 c 0,-0.15709 0.08703,-0.30109 0.22761,-0.37963 L 14.2791,2.04214 C 14.346,2.00286 14.4264,1.98323 14.5,1.98323 Z M 14.5,0 C 14.0716,0 13.6431,0.11127 13.2615,0.327265 L 1.23846,7.11475 C 0.4753,7.54674 0,8.34527 0,9.20925 V 22.7842 c 0,0.864 0.4753,1.6691 1.23846,2.1011 L 13.2615,31.6727 C 13.6431,31.8887 14.0716,32 14.5,32 c 0.4284,0 0.8569,-0.1113 1.2385,-0.3273 l 12.023,-6.7874 C 28.5314,24.4533 29,23.6547 29,22.7842 V 9.20925 C 29,8.34527 28.5247,7.54019 27.7615,7.1082 L 15.7452,0.327265 C 15.3569,0.11127 14.9284,0 14.5,0 Z"
       id="path3"
       style="fill-opacity:1;fill:#ffffff" />
    <path
       d="m 6.55469,27.883 1.10457,-2.9584 2.22253,1.8065 -2.07526,1.8588 z"
       id="path4"
       style="fill-opacity:1;fill:#ffffff" />
    <path
       d="m 13.4888,8.24048 h -3.0459 c -0.2276,0 -0.4352,0.13745 -0.50881,0.3469 L 3.40039,26.1026 6.55344,27.8829 13.7499,8.59393 C 13.8101,8.42375 13.6829,8.24048 13.4888,8.24048 Z"
       id="path5"
       style="fill-opacity:1;fill:#ffffff" />
    <path
       d="m 18.8236,8.24048 h -3.0459 c -0.2276,0 -0.4352,0.13745 -0.5088,0.3469 L 7.80469,28.5898 10.9577,30.3702 19.078,8.60047 C 19.1449,8.42375 19.0111,8.24048 18.8236,8.24048 Z"
       id="path6"
       style="fill-opacity:1;fill:#ffffff" />
  </g>
  <defs
     id="defs6">
    <clipPath
       id="clip0_971_20350">
      <rect
         width="29"
         height="32"
         fill="#ffffff"
         id="rect6"
         x="0"
         y="0" />
    </clipPath>
  </defs>
</svg>
