<?xml version="1.0" encoding="UTF-8" standalone="no"?>
<svg
   width="23px"
   height="23px"
   viewBox="0 0 23 23"
   version="1.1"
   id="svg5"
   sodipodi:docname="cat (1).svg"
   inkscape:version="1.3.2 (091e20e, 2023-11-25, custom)"
   xmlns:inkscape="http://www.inkscape.org/namespaces/inkscape"
   xmlns:sodipodi="http://sodipodi.sourceforge.net/DTD/sodipodi-0.dtd"
   xmlns="http://www.w3.org/2000/svg"
   xmlns:svg="http://www.w3.org/2000/svg">
  <defs
     id="defs5" />
  <sodipodi:namedview
     id="namedview5"
     pagecolor="#ffffff"
     bordercolor="#000000"
     borderopacity="0.25"
     inkscape:showpageshadow="2"
     inkscape:pageopacity="0.0"
     inkscape:pagecheckerboard="0"
     inkscape:deskcolor="#d1d1d1"
     inkscape:zoom="36.782609"
     inkscape:cx="11.486407"
     inkscape:cy="15.645981"
     inkscape:window-width="1920"
     inkscape:window-height="1111"
     inkscape:window-x="-9"
     inkscape:window-y="-9"
     inkscape:window-maximized="1"
     inkscape:current-layer="svg5" />
  <g
     id="surface1"
     style="fill:#ffffff"
     transform="matrix(1.2034014,0,0,1.0891184,-2.5338466,-0.61442406)">
    <path
       style="fill:#ffffff;fill-opacity:1;fill-rule:nonzero;stroke:none"
       d="M 8.292969,0.582031 C 7.992188,0.652344 7.765625,0.785156 7.507812,1.039062 7.300781,1.246094 7.152344,1.457031 7.007812,1.742188 6.152344,3.457031 6.441406,6.285156 7.640625,7.90625 7.804688,8.128906 8.089844,8.417969 8.285156,8.5625 c 0.632813,0.480469 1.351563,0.507812 1.921875,0.070312 0.589844,-0.449218 0.992188,-1.316406 1.144531,-2.460937 0.03516,-0.292969 0.04297,-1.207031 0.0078,-1.507813 C 11.210938,3.402344 10.835938,2.359375 10.25,1.570312 10.101562,1.371094 9.8125,1.078125 9.632812,0.941406 9.460938,0.8125 9.140625,0.648438 8.976562,0.601562 8.828125,0.5625 8.433594,0.550781 8.292969,0.582031 Z m 0,0"
       id="path1" />
    <path
       style="fill:#ffffff;fill-opacity:1;fill-rule:nonzero;stroke:none"
       d="m 15.355469,0.945312 c -0.558594,0.109376 -1.140625,0.539063 -1.625,1.1875 -0.621094,0.835938 -1.042969,1.941407 -1.199219,3.160157 -0.05078,0.386719 -0.04687,1.253906 0.0078,1.605469 0.125,0.804687 0.394532,1.417968 0.792969,1.816406 0.34375,0.34375 0.773438,0.503906 1.214844,0.453125 C 15.589844,9.039062 16.621094,7.898438 17.167969,6.265625 17.625,4.90625 17.675781,3.480469 17.300781,2.390625 16.9375,1.328125 16.195312,0.777344 15.355469,0.945312 Z m 0,0"
       id="path2" />
    <path
       style="fill:#ffffff;fill-opacity:1;fill-rule:nonzero;stroke:none"
       d="M 3.765625,6.808594 C 3.03125,6.925781 2.476562,7.519531 2.226562,8.460938 2.085938,9.003906 2.066406,9.75 2.175781,10.402344 c 0.257813,1.527344 1.140625,2.933594 2.1875,3.476562 0.535157,0.273438 1.070313,0.324219 1.527344,0.132813 C 6.566406,13.730469 7.007812,13.003906 7.15625,11.941406 7.183594,11.726562 7.183594,11.09375 7.152344,10.84375 6.917969,8.863281 5.699219,7.125 4.34375,6.835938 4.183594,6.804688 3.898438,6.789062 3.765625,6.808594 Z m 0,0"
       id="path3" />
    <path
       style="fill:#ffffff;fill-opacity:1;fill-rule:nonzero;stroke:none"
       d="m 18.992188,8.265625 c -0.644532,0.136719 -1.28125,0.59375 -1.808594,1.296875 -0.570313,0.765625 -0.953125,1.765625 -1.066406,2.769531 -0.02734,0.265625 -0.02344,0.828125 0.01172,1.082031 0.21875,1.703126 1.375,2.519532 2.683594,1.902344 0.703125,-0.332031 1.339844,-1.015625 1.792969,-1.929687 C 21.46875,11.664062 21.414062,9.640625 20.476562,8.707031 20.082031,8.3125 19.535156,8.148438 18.992188,8.265625 Z m 0,0"
       id="path4" />
    <path
       style="fill:#ffffff;fill-opacity:1;fill-rule:nonzero;stroke:none"
       d="M 11.1875,11.460938 C 9.996094,11.675781 8.496094,12.921875 7.164062,14.804688 6.125,16.28125 5.390625,17.871094 5.171875,19.128906 c -0.050781,0.300782 -0.054687,0.839844 -0.00781,1.046875 0.070313,0.320313 0.195313,0.535157 0.4375,0.757813 0.402344,0.371094 0.886719,0.589844 1.492188,0.675781 0.3125,0.04297 0.949219,0.02734 1.351562,-0.03516 0.542969,-0.08203 1,-0.191407 2.023438,-0.488281 0.988281,-0.285157 1.261719,-0.34375 1.535156,-0.324219 0.347656,0.02344 0.609375,0.105469 1.355469,0.4375 0.535156,0.234375 0.835937,0.34375 1.089844,0.410156 0.953125,0.226563 1.753906,-0.07031 2.578125,-0.96875 0.246094,-0.265625 0.320312,-0.394531 0.398437,-0.675781 0.04297,-0.160156 0.04687,-0.199219 0.04687,-0.578125 0,-0.339844 -0.0039,-0.4375 -0.04297,-0.636719 -0.210938,-1.199219 -0.839844,-2.644531 -1.75,-4.023438 -1.085938,-1.640624 -2.359376,-2.820312 -3.417969,-3.171874 -0.386719,-0.125 -0.714844,-0.15625 -1.074219,-0.09375 z m 0,0"
       id="path5" />
  </g>
</svg>
