<?xml version="1.0" encoding="UTF-8" standalone="no"?>
<svg
   width="23"
   height="23"
   viewBox="0 0 23 2.3"
   version="1.1"
   id="svg1"
   sodipodi:docname="Email.svg"
   inkscape:version="1.3.2 (091e20e, 2023-11-25, custom)"
   xmlns:inkscape="http://www.inkscape.org/namespaces/inkscape"
   xmlns:sodipodi="http://sodipodi.sourceforge.net/DTD/sodipodi-0.dtd"
   xmlns="http://www.w3.org/2000/svg"
   xmlns:svg="http://www.w3.org/2000/svg">
  <defs
     id="defs1" />
  <sodipodi:namedview
     id="namedview1"
     pagecolor="#ffffff"
     bordercolor="#000000"
     borderopacity="0.25"
     inkscape:showpageshadow="2"
     inkscape:pageopacity="0.0"
     inkscape:pagecheckerboard="0"
     inkscape:deskcolor="#d1d1d1"
     inkscape:zoom="9.9702056"
     inkscape:cx="7.9737573"
     inkscape:cy="28.835915"
     inkscape:window-width="1920"
     inkscape:window-height="1111"
     inkscape:window-x="-9"
     inkscape:window-y="-9"
     inkscape:window-maximized="1"
     inkscape:current-layer="svg1" />
  <g
     id="surface1"
     style="fill:#ffffff"
     transform="matrix(1.0952381,0,0,1.0666667,-1.6428571,-11.65)">
    <path
       style="fill:#ffffff;fill-opacity:1;fill-rule:nonzero;stroke:none"
       d="M 21,4.5 H 3 C 2.171875,4.5 1.5,5.171875 1.5,6 v 12 c 0,0.828125 0.671875,1.5 1.5,1.5 h 18 c 0.828125,0 1.5,-0.671875 1.5,-1.5 V 6 C 22.5,5.171875 21.828125,4.5 21,4.5 Z M 19.351562,6 12,11.085938 4.648438,6 Z M 3,18 V 6.683594 l 8.574219,5.929687 c 0.253906,0.179688 0.597656,0.179688 0.851562,0 L 21,6.683594 V 18 Z m 0,0"
       id="path1" />
  </g>
</svg>
