<?xml version="1.0" encoding="UTF-8" standalone="no"?>
<svg
   width="24px"
   height="240px"
   viewBox="0 0 24 24"
   version="1.1"
   id="svg1"
   sodipodi:docname="Email.svg"
   inkscape:version="1.3.2 (091e20e, 2023-11-25, custom)"
   xmlns:inkscape="http://www.inkscape.org/namespaces/inkscape"
   xmlns:sodipodi="http://sodipodi.sourceforge.net/DTD/sodipodi-0.dtd"
   xmlns="http://www.w3.org/2000/svg"
   xmlns:svg="http://www.w3.org/2000/svg">
  <defs
     id="defs1" />
  <sodipodi:namedview
     id="namedview1"
     pagecolor="#ffffff"
     bordercolor="#000000"
     borderopacity="0.25"
     inkscape:showpageshadow="2"
     inkscape:pageopacity="0.0"
     inkscape:pagecheckerboard="0"
     inkscape:deskcolor="#d1d1d1"
     inkscape:zoom="3.525"
     inkscape:cx="12.056738"
     inkscape:cy="120.14184"
     inkscape:window-width="1920"
     inkscape:window-height="1111"
     inkscape:window-x="-9"
     inkscape:window-y="-9"
     inkscape:window-maximized="1"
     inkscape:current-layer="svg1" />
  <g
     id="surface1"
     style="fill:#ffffff">
    <path
       style="stroke:none;fill-rule:nonzero;fill:#ffffff;fill-opacity:1"
       d="M 21 4.5 L 3 4.5 C 2.171875 4.5 1.5 5.171875 1.5 6 L 1.5 18 C 1.5 18.828125 2.171875 19.5 3 19.5 L 21 19.5 C 21.828125 19.5 22.5 18.828125 22.5 18 L 22.5 6 C 22.5 5.171875 21.828125 4.5 21 4.5 Z M 19.351562 6 L 12 11.085938 L 4.648438 6 Z M 3 18 L 3 6.683594 L 11.574219 12.613281 C 11.828125 12.792969 12.171875 12.792969 12.425781 12.613281 L 21 6.683594 L 21 18 Z M 3 18 "
       id="path1" />
  </g>
</svg>
