<?xml version="1.0" encoding="UTF-8" standalone="no"?>
<svg
   width="24px"
   height="240px"
   viewBox="0 0 24 24"
   version="1.1"
   id="svg1"
   sodipodi:docname="eth.svg"
   inkscape:version="1.3.2 (091e20e, 2023-11-25, custom)"
   xmlns:inkscape="http://www.inkscape.org/namespaces/inkscape"
   xmlns:sodipodi="http://sodipodi.sourceforge.net/DTD/sodipodi-0.dtd"
   xmlns="http://www.w3.org/2000/svg"
   xmlns:svg="http://www.w3.org/2000/svg">
  <defs
     id="defs1" />
  <sodipodi:namedview
     id="namedview1"
     pagecolor="#ffffff"
     bordercolor="#000000"
     borderopacity="0.25"
     inkscape:showpageshadow="2"
     inkscape:pageopacity="0.0"
     inkscape:pagecheckerboard="0"
     inkscape:deskcolor="#d1d1d1"
     inkscape:zoom="3.525"
     inkscape:cx="12.056738"
     inkscape:cy="120.14184"
     inkscape:window-width="1920"
     inkscape:window-height="1111"
     inkscape:window-x="-9"
     inkscape:window-y="-9"
     inkscape:window-maximized="1"
     inkscape:current-layer="svg1" />
  <g
     id="surface1"
     style="fill:#ffffff">
    <path
       style="stroke:none;fill-rule:nonzero;fill:#ffffff;fill-opacity:1"
       d="M 12.472656 0.472656 C 12.289062 0.476562 12.125 0.582031 12.046875 0.746094 L 5.363281 11.253906 C 5.351562 11.269531 5.339844 11.285156 5.332031 11.304688 C 5.324219 11.320312 5.316406 11.332031 5.3125 11.347656 C 5.300781 11.378906 5.292969 11.410156 5.285156 11.441406 C 5.28125 11.472656 5.277344 11.503906 5.28125 11.535156 C 5.28125 11.550781 5.28125 11.566406 5.285156 11.582031 C 5.285156 11.585938 5.285156 11.589844 5.285156 11.59375 C 5.289062 11.617188 5.296875 11.640625 5.300781 11.664062 C 5.304688 11.667969 5.304688 11.671875 5.304688 11.675781 C 5.3125 11.691406 5.316406 11.707031 5.324219 11.722656 C 5.332031 11.738281 5.339844 11.75 5.347656 11.765625 C 5.355469 11.777344 5.363281 11.792969 5.371094 11.804688 C 5.378906 11.808594 5.382812 11.816406 5.386719 11.820312 C 5.390625 11.828125 5.398438 11.835938 5.402344 11.839844 C 5.414062 11.851562 5.425781 11.863281 5.4375 11.875 C 5.460938 11.898438 5.488281 11.917969 5.511719 11.933594 C 5.515625 11.933594 5.515625 11.933594 5.515625 11.933594 C 5.515625 11.933594 5.519531 11.9375 5.523438 11.9375 L 12.183594 15.742188 C 12.355469 15.878906 12.601562 15.882812 12.773438 15.746094 L 19.429688 11.941406 C 19.429688 11.941406 19.433594 11.9375 19.4375 11.9375 C 19.449219 11.929688 19.460938 11.925781 19.46875 11.917969 C 19.472656 11.914062 19.476562 11.914062 19.476562 11.910156 C 19.480469 11.910156 19.484375 11.90625 19.484375 11.90625 C 19.496094 11.898438 19.503906 11.890625 19.515625 11.882812 C 19.519531 11.878906 19.519531 11.878906 19.523438 11.878906 C 19.53125 11.867188 19.542969 11.859375 19.550781 11.847656 C 19.5625 11.835938 19.570312 11.824219 19.582031 11.8125 C 19.589844 11.800781 19.601562 11.785156 19.609375 11.773438 C 19.609375 11.769531 19.609375 11.769531 19.609375 11.769531 C 19.617188 11.757812 19.625 11.742188 19.632812 11.730469 C 19.636719 11.71875 19.644531 11.707031 19.648438 11.695312 C 19.648438 11.691406 19.648438 11.6875 19.652344 11.6875 C 19.652344 11.683594 19.652344 11.679688 19.65625 11.675781 C 19.65625 11.664062 19.660156 11.652344 19.664062 11.640625 C 19.664062 11.640625 19.664062 11.636719 19.664062 11.636719 C 19.667969 11.621094 19.671875 11.609375 19.675781 11.59375 C 19.675781 11.582031 19.679688 11.570312 19.679688 11.554688 C 19.679688 11.539062 19.679688 11.523438 19.679688 11.507812 C 19.679688 11.5 19.679688 11.488281 19.679688 11.480469 C 19.675781 11.46875 19.675781 11.460938 19.675781 11.449219 C 19.675781 11.449219 19.675781 11.445312 19.675781 11.445312 C 19.671875 11.429688 19.667969 11.417969 19.664062 11.40625 C 19.664062 11.402344 19.664062 11.402344 19.664062 11.402344 C 19.664062 11.390625 19.660156 11.378906 19.65625 11.367188 C 19.65625 11.363281 19.652344 11.359375 19.652344 11.355469 C 19.648438 11.351562 19.648438 11.347656 19.648438 11.34375 C 19.644531 11.335938 19.640625 11.324219 19.632812 11.3125 C 19.632812 11.3125 19.632812 11.3125 19.632812 11.308594 C 19.625 11.296875 19.617188 11.285156 19.609375 11.269531 C 19.609375 11.269531 19.609375 11.265625 19.605469 11.265625 C 19.605469 11.265625 19.605469 11.261719 19.605469 11.261719 L 19.589844 11.238281 L 12.910156 0.742188 C 12.828125 0.574219 12.65625 0.472656 12.472656 0.472656 Z M 12 2.609375 L 12 8.324219 L 7 10.464844 Z M 12.960938 2.609375 L 17.960938 10.464844 L 12.960938 8.324219 Z M 12 9.367188 L 12 14.53125 L 6.835938 11.582031 Z M 12.960938 9.367188 L 18.125 11.582031 L 12.960938 14.53125 Z M 19.203125 13.4375 C 19.117188 13.4375 19.035156 13.460938 18.960938 13.503906 L 12.480469 17.207031 L 6 13.503906 C 5.929688 13.464844 5.851562 13.441406 5.769531 13.441406 C 5.585938 13.4375 5.417969 13.535156 5.332031 13.699219 C 5.25 13.863281 5.265625 14.058594 5.375 14.203125 L 12.0625 23.28125 C 12.148438 23.433594 12.304688 23.527344 12.480469 23.527344 C 12.652344 23.527344 12.8125 23.433594 12.898438 23.28125 L 19.585938 14.203125 C 19.695312 14.058594 19.710938 13.867188 19.628906 13.703125 C 19.550781 13.542969 19.382812 13.441406 19.203125 13.4375 Z M 7.496094 15.464844 L 12 18.039062 L 12 21.578125 Z M 17.464844 15.464844 L 12.960938 21.578125 L 12.960938 18.039062 Z M 17.464844 15.464844 "
       id="path1" />
  </g>
</svg>
