<?xml version="1.0" encoding="UTF-8" standalone="no"?>
<svg
   width="23"
   height="23"
   viewBox="0 0 23 2.3"
   version="1.1"
   id="svg1"
   sodipodi:docname="eth.svg"
   inkscape:version="1.3.2 (091e20e, 2023-11-25, custom)"
   xmlns:inkscape="http://www.inkscape.org/namespaces/inkscape"
   xmlns:sodipodi="http://sodipodi.sourceforge.net/DTD/sodipodi-0.dtd"
   xmlns="http://www.w3.org/2000/svg"
   xmlns:svg="http://www.w3.org/2000/svg">
  <defs
     id="defs1" />
  <sodipodi:namedview
     id="namedview1"
     pagecolor="#ffffff"
     bordercolor="#000000"
     borderopacity="0.25"
     inkscape:showpageshadow="2"
     inkscape:pageopacity="0.0"
     inkscape:pagecheckerboard="0"
     inkscape:deskcolor="#d1d1d1"
     inkscape:zoom="3.525"
     inkscape:cx="12.340426"
     inkscape:cy="120.14184"
     inkscape:window-width="1920"
     inkscape:window-height="1111"
     inkscape:window-x="-9"
     inkscape:window-y="-9"
     inkscape:window-maximized="1"
     inkscape:current-layer="svg1" />
  <g
     id="surface1"
     style="fill:#ffffff"
     transform="matrix(1.0415763,0,0,0.9976279,-1.4991383,-10.821535)">
    <path
       style="fill:#ffffff;fill-opacity:1;fill-rule:nonzero;stroke:none"
       d="M 12.472656,0.472656 C 12.289062,0.476562 12.125,0.582031 12.046875,0.746094 L 5.363281,11.253906 c -0.011719,0.01563 -0.023437,0.03125 -0.03125,0.05078 -0.00781,0.01562 -0.015625,0.02734 -0.019531,0.04297 -0.011719,0.03125 -0.019531,0.0625 -0.027344,0.09375 -0.00391,0.03125 -0.00781,0.0625 -0.00391,0.09375 0,0.01563 0,0.03125 0.00391,0.04687 0,0.0039 0,0.0078 0,0.01172 0.00391,0.02344 0.011719,0.04687 0.015625,0.07031 0.00391,0.0039 0.00391,0.0078 0.00391,0.01172 0.00781,0.01563 0.011718,0.03125 0.019531,0.04687 0.00781,0.01563 0.015625,0.02734 0.023437,0.04297 0.00781,0.01172 0.015625,0.02734 0.023438,0.03906 0.00781,0.0039 0.011718,0.01172 0.015625,0.01562 0.00391,0.0078 0.011719,0.01563 0.015625,0.01953 0.011718,0.01172 0.023437,0.02344 0.035156,0.03516 0.023438,0.02344 0.050781,0.04297 0.074219,0.05859 0.00391,0 0.00391,0 0.00391,0 0,0 0.00391,0.0039 0.00781,0.0039 l 6.660156,3.804688 c 0.171875,0.136718 0.417968,0.140624 0.589844,0.0039 l 6.65625,-3.804688 c 0,0 0.0039,-0.0039 0.0078,-0.0039 0.01172,-0.0078 0.02344,-0.01172 0.03125,-0.01953 0.0039,-0.0039 0.0078,-0.0039 0.0078,-0.0078 0.0039,0 0.0078,-0.0039 0.0078,-0.0039 0.01172,-0.0078 0.01953,-0.01563 0.03125,-0.02344 0.0039,-0.0039 0.0039,-0.0039 0.0078,-0.0039 0.0078,-0.01172 0.01953,-0.01953 0.02734,-0.03125 0.01172,-0.01172 0.01953,-0.02344 0.03125,-0.03516 0.0078,-0.01172 0.01953,-0.02734 0.02734,-0.03906 0,-0.0039 0,-0.0039 0,-0.0039 0.0078,-0.01172 0.01563,-0.02734 0.02344,-0.03906 0.0039,-0.01172 0.01172,-0.02344 0.01563,-0.03516 0,-0.0039 0,-0.0078 0.0039,-0.0078 0,-0.0039 0,-0.0078 0.0039,-0.01172 0,-0.01172 0.0039,-0.02344 0.0078,-0.03516 0,0 0,-0.0039 0,-0.0039 0.0039,-0.01563 0.0078,-0.02734 0.01172,-0.04297 0,-0.01172 0.0039,-0.02344 0.0039,-0.03906 0,-0.01563 0,-0.03125 0,-0.04688 0,-0.0078 0,-0.01953 0,-0.02734 -0.0039,-0.01172 -0.0039,-0.01953 -0.0039,-0.03125 0,0 0,-0.0039 0,-0.0039 -0.0039,-0.01562 -0.0078,-0.02734 -0.01172,-0.03906 0,-0.0039 0,-0.0039 0,-0.0039 0,-0.01172 -0.0039,-0.02344 -0.0078,-0.03516 0,-0.0039 -0.0039,-0.0078 -0.0039,-0.01172 -0.0039,-0.0039 -0.0039,-0.0078 -0.0039,-0.01172 -0.0039,-0.0078 -0.0078,-0.01953 -0.01563,-0.03125 0,0 0,0 0,-0.0039 -0.0078,-0.01172 -0.01562,-0.02344 -0.02344,-0.03906 0,0 0,-0.0039 -0.0039,-0.0039 0,0 0,-0.0039 0,-0.0039 L 19.589844,11.238281 12.910156,0.742188 C 12.828125,0.574219 12.65625,0.472656 12.472656,0.472656 Z M 12,2.609375 v 5.714844 l -5,2.140625 z m 0.960938,0 5,7.855469 -5,-2.140625 z M 12,9.367188 V 14.53125 L 6.835938,11.582031 Z m 0.960938,0 5.164062,2.214843 -5.164062,2.949219 z m 6.242187,4.070312 c -0.08594,0 -0.167969,0.02344 -0.242187,0.06641 L 12.480469,17.207031 6,13.503906 c -0.070312,-0.03906 -0.148438,-0.0625 -0.230469,-0.0625 -0.183593,-0.0039 -0.351562,0.09375 -0.4375,0.257813 C 5.25,13.863281 5.265625,14.058594 5.375,14.203125 l 6.6875,9.078125 c 0.08594,0.152344 0.242188,0.246094 0.417969,0.246094 0.171875,0 0.332031,-0.09375 0.417969,-0.246094 l 6.6875,-9.078125 c 0.109374,-0.144531 0.125,-0.335937 0.04297,-0.5 -0.07813,-0.160156 -0.246094,-0.261719 -0.425781,-0.265625 z M 7.496094,15.464844 12,18.039062 v 3.539063 z m 9.96875,0 -4.503906,6.113281 v -3.539063 z m 0,0"
       id="path1" />
  </g>
</svg>
