<?xml version="1.0" encoding="UTF-8" standalone="no"?>
<svg
   version="1.1"
   width="23"
   height="23"
   id="svg5"
   sodipodi:docname="line-logo.svg"
   inkscape:version="1.4.2 (f4327f4, 2025-05-13)"
   xmlns:inkscape="http://www.inkscape.org/namespaces/inkscape"
   xmlns:sodipodi="http://sodipodi.sourceforge.net/DTD/sodipodi-0.dtd"
   xmlns="http://www.w3.org/2000/svg"
   xmlns:svg="http://www.w3.org/2000/svg">
  <defs
     id="defs5" />
  <sodipodi:namedview
     id="namedview5"
     pagecolor="#ffffff"
     bordercolor="#000000"
     borderopacity="0.25"
     inkscape:showpageshadow="2"
     inkscape:pageopacity="0.0"
     inkscape:pagecheckerboard="0"
     inkscape:deskcolor="#d1d1d1"
     inkscape:zoom="18.009126"
     inkscape:cx="13.965142"
     inkscape:cy="15.964129"
     inkscape:window-width="1920"
     inkscape:window-height="1017"
     inkscape:window-x="-8"
     inkscape:window-y="-8"
     inkscape:window-maximized="1"
     inkscape:current-layer="svg5" />
  <g
     id="g5"
     transform="matrix(0.04486874,0,0,0.04679926,0.01274766,-0.47717765)">
    <path
       d="M 0,0 C 0.89589844,0.70382813 1.7917969,1.4076563 2.7148438,2.1328125 44.192782,35.338967 73.270615,80.966738 80.594238,134.09668 c 0.732384,7.04533 0.753084,14.07599 0.718262,21.15332 -0.0027,1.15603 -0.0027,1.15603 -0.0055,2.33542 C 81.261592,168.98753 80.750121,179.8989 78,191 c -0.233481,1.02891 -0.233481,1.02891 -0.47168,2.07861 C 69.621317,227.72897 50.394101,258.86427 28,286 c -0.708904,0.86335 -0.708904,0.86335 -1.432129,1.74414 -6.015414,7.28679 -12.309882,14.15931 -19.0568847,20.77466 -2.8678872,2.81491 -5.6074937,5.65364 -8.1984863,8.7312 -4.0130644,4.71486 -8.6695772,8.67176 -13.3125,12.75 -1.646897,1.49883 -3.292737,2.99883 -4.9375,4.5 -5.212487,4.68077 -10.579527,9.14077 -16.0625,13.5 -0.65001,0.51724 -1.30002,1.03447 -1.969727,1.56738 C -66.800084,373.22123 -98.719508,393.57448 -132,412 c -0.75636,0.42023 -1.51271,0.84047 -2.29199,1.27344 C -173.03618,434.68423 -173.03618,434.68423 -185,433 c -5.09841,-1.99464 -8.95444,-5.09706 -11.37891,-10.04297 -1.56558,-4.93305 -1.16945,-9.37287 0.50391,-14.20703 4.08997,-5.99863 9.70175,-8.92136 16.11328,-11.90234 1.62928,-0.77717 3.25851,-1.55443 4.8877,-2.33179 0.84695,-0.40024 1.69391,-0.80049 2.56652,-1.21286 53.18603,-25.18239 101.929801,-57.94278 144.87,-98.24051 0.716074,-0.66451 1.432148,-1.32902 2.169922,-2.01367 4.143591,-3.88721 7.994649,-7.89894 11.688232,-12.21558 2.154264,-2.5006 4.4338801,-4.87573 6.704346,-7.27075 C 24.814786,239.40208 48.850065,195.19317 47.147949,147.69482 44.933135,107.35304 25.063014,71.213084 -3,43 -3.5264209,42.469551 -4.0528418,41.939102 -4.5952148,41.392578 -39.549352,6.615873 -87.038444,-12.117683 -135,-20 c -0.67627,-0.113276 -1.35255,-0.226553 -2.04932,-0.343262 -63.95896,-10.362432 -133.08897,5.719097 -185.84912,43.085449 C -332.63128,29.770022 -341.49421,37.536285 -350,46 c -0.49838,0.494355 -0.99677,0.988711 -1.51025,1.498047 -29.31123,29.483113 -45.74567,69.454343 -45.80664,110.928713 0.57688,45.45248 20.67865,84.97694 51.69189,117.26074 37.53273,36.4546 90.3876,56.15883 142.01514,59.49097 6.48263,0.48097 12.4081,1.34256 17.70361,5.44262 3.9175,5.06011 4.71249,9.23332 4.35938,15.60547 -0.88099,5.39222 -3.26864,7.87903 -7.51563,11.08594 -16.59311,9.53221 -50.72573,-1.15829 -68.28125,-5.72266 C -289.00957,352.88975 -319.90082,340.30856 -346,320 c -0.80309,-0.62262 -1.60617,-1.24523 -2.43359,-1.88672 C -350.98056,316.10424 -353.4944,314.0604 -356,312 c -0.5029,-0.41121 -1.00579,-0.82242 -1.52393,-1.24609 C -398.51713,277.13125 -425.72637,229.02136 -431,176 c -0.15604,-2.75018 -0.20904,-5.49581 -0.23828,-8.25 -0.01,-0.76732 -0.0196,-1.53465 -0.0297,-2.32523 -0.32326,-31.92068 4.159,-60.53221 18.26796,-89.42477 0.51603,-1.068794 0.51603,-1.068794 1.04248,-2.15918 26.99898,-55.306992 80.26145,-94.463811 137.30469,-114.64624 C -255.15867,-47.480911 -235.42528,-52.28771 -215,-55 c 0.85852,-0.117144 1.71703,-0.234287 2.60156,-0.35498 C -138.88368,-64.9284 -58.410078,-46.421984 0,0 Z"
       fill="#000000"
       id="path1"
       transform="translate(431,68)" />
    <path
       d="M 0,0 C 1.1118164,0.08314453 1.1118164,0.08314453 2.2460938,0.16796875 7.4666269,1.6205623 10.157435,5.3024637 12.79541,9.8366699 13.1723,10.509319 13.549189,11.181968 13.9375,11.875 c 0.414272,0.720989 0.828545,1.441978 1.255371,2.184814 1.471735,2.575935 2.922699,5.162736 4.369629,7.752686 0.592324,1.059932 1.184648,2.119863 1.794922,3.211914 3.177805,5.696955 6.341413,11.401425 9.49414,17.112305 3.835395,6.931297 7.764506,13.807335 11.710938,20.675781 0.0036,-0.648444 0.0073,-1.296888 0.01105,-1.964981 0.0419,-6.765208 0.111292,-13.529742 0.196473,-20.29454 0.02818,-2.522718 0.04941,-5.045524 0.06348,-7.56836 0.02147,-3.632048 0.06815,-7.263044 0.119629,-10.894775 0.0012,-1.123182 0.0025,-2.246363 0.0037,-3.40358 C 43.077478,12.198172 43.646333,8.066825 47.5625,2.8125 51.124829,0.16146483 53.796187,-0.40543805 58.125,-0.125 c 4.107726,0.63621344 6.534037,1.8580698 9.4375,4.9375 3.872422,5.615012 3.152172,13.512947 3.161133,20.081299 0.0074,1.323431 0.0074,1.323431 0.01504,2.673599 0.01453,2.900719 0.02141,5.801384 0.02695,8.702133 0.0042,1.494142 0.0042,1.494142 0.0086,3.018469 0.01496,5.26997 0.02421,10.539912 0.02854,15.8099 0.0055,5.423457 0.02952,10.846662 0.05797,16.27004 0.01869,4.189211 0.02384,8.378363 0.02536,12.567613 0.003,1.99854 0.01099,3.997079 0.02419,5.995578 0.141554,23.091509 0.141554,23.091509 -4.55204,29.534519 -3.357048,3.33019 -7.010893,4.21986 -11.557434,4.47966 -6.35912,-0.37733 -10.110169,-3.64874 -14.238281,-8.13281 -1.344004,-1.94555 -2.62245,-3.93766 -3.839844,-5.96484 -0.508648,-0.84425 -0.508648,-0.84425 -1.027572,-1.70555 C 31.980342,101.92939 28.480374,95.596137 25,89.25 20.298342,80.701087 15.519522,72.215896 10.5625,63.8125 c -0.01982,1.285759 -0.03964,2.571519 -0.06006,3.89624 -0.07648,4.802923 -0.165132,9.605559 -0.257324,14.408203 -0.03811,2.072534 -0.073,4.145129 -0.104492,6.217774 -0.04603,2.991517 -0.103963,5.982613 -0.1640625,8.973877 -0.017327,1.373992 -0.017327,1.373992 -0.035004,2.775746 C 9.6230344,114.19506 9.6230344,114.19506 5.25,119.75 c -3.9708713,3.04741 -6.6858642,4.31286 -11.6875,3.9375 -3.917508,-0.62828 -6.199628,-1.99226 -9,-4.875 -3.691401,-5.5371 -3.152552,-12.6743 -3.161133,-19.075439 -0.005,-0.893502 -0.0099,-1.787004 -0.01505,-2.707581 -0.01455,-2.943428 -0.02141,-5.886803 -0.02695,-8.830261 -0.0058,-2.054947 -0.01151,-4.109894 -0.01727,-6.164841 -0.01049,-4.304675 -0.01635,-8.609331 -0.01984,-12.914017 -0.0055,-5.500931 -0.02952,-11.001615 -0.05797,-16.502469 -0.01867,-4.244074 -0.02383,-8.488089 -0.02536,-12.732201 -0.003,-2.027278 -0.01101,-4.054554 -0.02418,-6.081791 -0.01716,-2.842782 -0.01516,-5.684964 -0.0087,-8.527777 -0.0092,-0.827835 -0.01843,-1.65567 -0.02792,-2.508591 0.04551,-6.425118 1.02108,-12.9282675 5.067963,-18.111282 C -13.175117,4.2128125 -12.596328,3.769375 -12,3.3125 -11.423789,2.8484375 -10.847578,2.384375 -10.253906,1.90625 -6.8655869,-0.1340283 -3.8870161,-0.35703961 0,0 Z"
       fill="#000000"
       transform="translate(250.4375,167.1875)"
       id="path2" />
    <path
       d="m 0,0 c 1.1647838,-0.00960754 2.3295676,-0.01921509 3.5296478,-0.02911377 1.2542226,-0.0042499 2.5084452,-0.0084998 3.8006745,-0.01287842 1.9380727,-0.0085501 1.9380727,-0.0085501 3.9152987,-0.01727295 2.732746,-0.0104875 5.465463,-0.01634525 8.198227,-0.01983642 3.494849,-0.0054883 6.98931,-0.02953253 10.484038,-0.05797196 3.342471,-0.0231413 6.684889,-0.0250763 10.027436,-0.0299187 1.252199,-0.0123468 2.504397,-0.0246936 3.794541,-0.0374145 1.167936,0.003001 2.335872,0.006002 3.539199,0.009094 1.024961,-0.003646 2.049922,-0.007291 3.105942,-0.0110474 4.290297,0.56024411 6.91259,2.58770022 10.126725,5.36749262 2.569774,4.5684882 2.312458,8.8768815 1.6875,14.0000005 -1.318696,3.516522 -2.360337,4.587696 -5.492676,6.606689 -4.624232,1.83701 -8.573805,1.770128 -13.499512,1.68628 -0.94594,-0.0042 -1.89188,-0.0085 -2.866486,-0.01286 -3.005738,-0.01672 -6.010793,-0.05436 -9.016326,-0.0926 -2.044262,-0.01506 -4.088533,-0.02874 -6.132813,-0.04102 -4.997657,-0.03298 -9.994807,-0.08472 -14.992187,-0.146484 0,5.61 0,11.22 0,17 3.992871,-0.05221 3.992871,-0.05221 8.066406,-0.105469 2.594797,-0.02343 5.189582,-0.04163 7.784424,-0.05933 1.795301,-0.01503 3.590566,-0.03546 5.385742,-0.06152 2.589203,-0.03663 5.177918,-0.05346 7.767334,-0.06665 1.192612,-0.02323 1.192612,-0.02323 2.409317,-0.04692 5.273896,-0.0016 8.910617,0.850647 13.586777,3.33989 2.78301,3.43238 3.830732,6.599047 4,11 -0.882105,4.250139 -1.892035,7.892034 -5,11 -4.580803,2.290401 -8.826582,2.128452 -13.824219,2.097656 -0.861401,-0.0014 -1.722802,-0.0028 -2.610306,-0.0043 -2.751027,-0.0056 -5.501973,-0.01815 -8.252975,-0.03087 -1.865234,-0.005 -3.730468,-0.0096 -5.595704,-0.01367 -4.572322,-0.01017 -9.144468,-0.02975 -13.716796,-0.04883 0,6.93 0,13.86 0,21 4.317714,-0.03481 4.317714,-0.03481 8.722656,-0.07031 2.803299,-0.01562 5.606594,-0.02775 8.409912,-0.03955 1.940777,-0.01003 3.88154,-0.02365 5.822265,-0.04102 2.797646,-0.0244 5.59509,-0.03564 8.392823,-0.04443 0.860696,-0.01032 1.721392,-0.02064 2.608169,-0.03128 5.95671,-0.0011 11.440802,0.256473 16.356675,3.976593 3.090286,4.120372 3.907939,7.740422 3.5625,12.812492 -0.598882,4.13646 -1.727249,6.55206 -4.875,9.4375 -3.757781,1.84213 -6.801322,2.25611 -10.964356,2.27466 -1.178274,0.01 -2.356547,0.0191 -3.570526,0.0289 -1.264661,-9.2e-4 -2.529322,-0.002 -3.832306,-0.003 -1.308086,0.004 -2.616172,0.009 -3.963898,0.013 -2.765493,0.007 -5.530859,0.007 -8.296356,0.002 -3.529409,-0.006 -7.058292,0.0111 -10.587614,0.0343 -3.384065,0.0183 -6.768017,0.0145 -10.152132,0.0133 -1.2606125,0.009 -2.521225,0.0184 -3.8200378,0.0279 -6.3470077,-0.0334 -11.2724315,-0.15473 -16.8127742,-3.39119 -3.607581,-3.79745 -5.118668,-6.82818 -5.140442,-12.04084 -0.0057,-0.82005 -0.01142,-1.64009 -0.0173,-2.48498 -0.0011,-0.89616 -0.0022,-1.79232 -0.0034,-2.715627 -0.005,-0.946651 -0.0099,-1.893301 -0.01505,-2.868637 -0.01462,-3.136487 -0.02142,-6.272924 -0.02695,-9.409439 -0.0058,-2.178523 -0.01151,-4.357046 -0.01727,-6.535569 -0.01051,-4.570584 -0.01635,-9.141151 -0.01984,-13.711746 -0.0055,-5.854423 -0.02951,-11.708613 -0.05797,-17.562962 -0.01863,-4.50131 -0.02383,-9.002563 -0.02536,-13.503908 -0.003,-2.158146 -0.01105,-4.316291 -0.02418,-6.474399 -0.01707,-3.020929 -0.01518,-6.041289 -0.0087,-9.062247 -0.0092,-0.890087 -0.01843,-1.780175 -0.02792,-2.697235 0.03405,-5.065637 0.57141,-8.5445749 3.384369,-12.9324035 C -10.00765,0.62329961 -6.4273613,0.04285055 0,0 Z"
       fill="#000000"
       transform="translate(352.79077,168.83887)"
       id="path3" />
    <path
       d="m 0,0 c 4.3638705,2.5614023 6.096441,5.3740139 8,10 0.2651105,2.845764 0.3811522,5.461731 0.3405762,8.300293 6.571e-4,1.215634 6.571e-4,1.215634 0.00133,2.455826 -0.00208,2.662273 -0.025372,5.323906 -0.048935,7.986068 -0.0056,1.852302 -0.00987,3.704608 -0.012863,5.556916 -0.011426,4.86297 -0.040874,9.725668 -0.074112,14.588531 -0.03075,4.967106 -0.044404,9.934255 -0.059509,14.901428 C 8.11436,73.52616 8.0631909,83.263058 8,93 c 1.1552417,-0.01571 2.310483,-0.03142 3.500732,-0.04761 4.295665,-0.0544 8.591299,-0.08878 12.887207,-0.117188 1.857474,-0.01506 3.714913,-0.03552 5.572266,-0.06152 2.67351,-0.03649 5.346549,-0.05343 8.020264,-0.06665 1.240906,-0.02323 1.240906,-0.02323 2.506881,-0.04692 C 45.18357,92.658747 48.160983,93.001262 52,96 c 3.773517,3.773517 4.816422,6.67623 5,12 -0.678871,4.37495 -1.618331,7.00169 -4.9375,9.875 -3.95543,2.74458 -6.554483,3.25172 -11.249023,3.28613 -1.587451,0.0144 -1.587451,0.0144 -3.206971,0.0291 -1.715611,0.006 -1.715611,0.006 -3.465881,0.0129 -1.76661,0.009 -1.76661,0.009 -3.568909,0.0173 -2.494925,0.009 -4.989862,0.016 -7.484802,0.0198 -3.80784,0.01 -7.615138,0.0407 -11.422851,0.0723 -2.4244765,0.007 -4.8489563,0.0118 -7.273438,0.0156 -1.1356439,0.0123 -2.2712878,0.0247 -3.44134521,0.0374 C -5.1459471,121.34846 -9.6589369,121.03985 -15,118 c -3.636323,-3.82771 -5.118962,-6.86814 -5.140442,-12.11678 -0.0057,-0.83686 -0.01142,-1.67373 -0.0173,-2.53596 -0.0011,-0.91486 -0.0022,-1.82972 -0.0034,-2.77231 -0.005,-0.966156 -0.0099,-1.932314 -0.01505,-2.927748 -0.01462,-3.201419 -0.02142,-6.402787 -0.02695,-9.604233 -0.0058,-2.223364 -0.01151,-4.446727 -0.01727,-6.67009 -0.01051,-4.664741 -0.01635,-9.329465 -0.01984,-13.994217 -0.0055,-5.975489 -0.02951,-11.95075 -0.05797,-17.926167 -0.01863,-4.593956 -0.02383,-9.187856 -0.02536,-13.781846 -0.003,-2.202804 -0.01105,-4.405606 -0.02418,-6.608372 -0.01707,-3.083191 -0.01518,-6.165826 -0.0087,-9.249045 -0.0092,-0.908789 -0.01843,-1.817578 -0.02792,-2.753906 C -20.350713,11.950827 -19.852253,8.4184559 -17,4 -11.478667,-1.1072333 -7.1249812,-1.6056296 0,0 Z"
       fill="#000000"
       transform="translate(126,168)"
       id="path4" />
    <path
       d="m 0,0 c 3.7082529,2.088826 6.636696,4.9100881 8,9 1.047881,5.03722 1.1480713,9.881318 1.1452637,14.999512 0.00336,0.885354 0.00672,1.770708 0.010178,2.682892 0.00947,2.915775 0.011451,5.831493 0.012528,8.747283 0.00322,2.034923 0.00658,4.069845 0.010086,6.104767 0.00598,4.261796 0.00784,8.523571 0.00725,12.78537 -1.016e-4,5.449409 0.013553,10.898688 0.030772,16.348067 0.011141,4.201998 0.013146,8.403966 0.012618,12.605978 0.00118,2.008557 0.00558,4.017115 0.013332,6.025657 0.00984,2.81415 0.0069,5.628019 8.945e-4,8.442173 0.00562,0.82208 0.011239,1.644159 0.017029,2.491151 -0.034857,6.45235 -0.4967374,12.86057 -4.5724487,18.14215 -3.2698233,3.19378 -5.2102606,4.59336 -9.828125,4.65234 C -10.202684,122.70049 -13.49705,121.91506 -17,118 c -3.021426,-5.70777 -3.43191,-10.36163 -3.388184,-16.75562 -0.0053,-0.95377 -0.01051,-1.907546 -0.01593,-2.890224 -0.01315,-3.137752 -0.0045,-6.274993 0.0057,-9.41275 -0.002,-2.190436 -0.0049,-4.380871 -0.0087,-6.571304 -0.0044,-4.585428 0.002,-9.170681 0.01602,-13.756088 0.01708,-5.865362 0.0073,-11.730311 -0.01072,-17.595657 -0.01086,-4.521994 -0.0074,-9.043892 3.84e-4,-13.56589 0.002,-2.162063 -4.35e-4,-4.324135 -0.0074,-6.486187 -0.0077,-3.027326 0.004,-6.053993 0.0207,-9.08127 -0.0061,-0.885964 -0.01215,-1.771927 -0.0184,-2.684738 C -20.34854,13.47849 -19.40774,9.2146391 -17,4 -11.711772,-1.1560226 -6.960291,-1.7460116 0,0 Z"
       fill="#000000"
       transform="translate(209,168)"
       id="path5" />
  </g>
</svg>
