<?xml version="1.0" encoding="UTF-8" standalone="no"?>
<svg
   width="24px"
   height="240px"
   viewBox="0 0 24 24"
   version="1.1"
   id="svg1"
   sodipodi:docname="LogoGithub.svg"
   inkscape:version="1.3.2 (091e20e, 2023-11-25, custom)"
   xmlns:inkscape="http://www.inkscape.org/namespaces/inkscape"
   xmlns:sodipodi="http://sodipodi.sourceforge.net/DTD/sodipodi-0.dtd"
   xmlns="http://www.w3.org/2000/svg"
   xmlns:svg="http://www.w3.org/2000/svg">
  <defs
     id="defs1" />
  <sodipodi:namedview
     id="namedview1"
     pagecolor="#ffffff"
     bordercolor="#000000"
     borderopacity="0.25"
     inkscape:showpageshadow="2"
     inkscape:pageopacity="0.0"
     inkscape:pagecheckerboard="0"
     inkscape:deskcolor="#d1d1d1"
     inkscape:zoom="3.525"
     inkscape:cx="12.056738"
     inkscape:cy="120.14184"
     inkscape:window-width="1920"
     inkscape:window-height="1111"
     inkscape:window-x="-9"
     inkscape:window-y="-9"
     inkscape:window-maximized="1"
     inkscape:current-layer="svg1" />
  <g
     id="surface1"
     style="fill:#ffffff">
    <path
       style="stroke:none;fill-rule:nonzero;fill:#ffffff;fill-opacity:1"
       d="M 12 1.5 C 6.203125 1.5 1.5 6.324219 1.5 12.265625 C 1.5 17.023438 4.507812 21.054688 8.679688 22.480469 C 8.738281 22.492188 8.800781 22.5 8.859375 22.5 C 9.25 22.5 9.398438 22.214844 9.398438 21.964844 C 9.398438 21.707031 9.390625 21.03125 9.382812 20.132812 C 9.035156 20.214844 8.683594 20.257812 8.324219 20.257812 C 6.304688 20.257812 5.84375 18.6875 5.84375 18.6875 C 5.367188 17.445312 4.679688 17.113281 4.679688 17.113281 C 3.765625 16.472656 4.671875 16.453125 4.742188 16.453125 L 4.75 16.453125 C 5.804688 16.546875 6.355469 17.570312 6.355469 17.570312 C 6.882812 18.488281 7.585938 18.746094 8.210938 18.746094 C 8.628906 18.738281 9.035156 18.640625 9.414062 18.464844 C 9.507812 17.769531 9.777344 17.296875 10.078125 17.023438 C 7.75 16.753906 5.296875 15.828125 5.296875 11.703125 C 5.296875 10.527344 5.703125 9.566406 6.375 8.816406 C 6.265625 8.546875 5.90625 7.449219 6.476562 5.96875 C 6.554688 5.949219 6.632812 5.941406 6.710938 5.945312 C 7.09375 5.945312 7.949219 6.089844 9.367188 7.074219 C 11.085938 6.59375 12.90625 6.59375 14.625 7.074219 C 16.039062 6.089844 16.898438 5.945312 17.277344 5.945312 C 17.355469 5.941406 17.4375 5.949219 17.511719 5.96875 C 18.085938 7.449219 17.722656 8.546875 17.617188 8.816406 C 18.285156 9.570312 18.695312 10.53125 18.695312 11.703125 C 18.695312 15.839844 16.238281 16.75 13.898438 17.015625 C 14.273438 17.347656 14.609375 18.003906 14.609375 19.007812 C 14.609375 20.445312 14.597656 21.609375 14.597656 21.960938 C 14.597656 22.214844 14.742188 22.5 15.132812 22.5 C 15.195312 22.5 15.257812 22.492188 15.320312 22.480469 C 19.496094 21.054688 22.5 17.019531 22.5 12.265625 C 22.5 6.324219 17.796875 1.5 12 1.5 Z M 12 1.5 "
       id="path1" />
  </g>
</svg>
