<?xml version="1.0" encoding="UTF-8" standalone="no"?>
<!-- Generator: Adobe Illustrator 24.0.0, SVG Export Plug-In . SVG Version: 6.00 Build 0)  -->

<svg
   version="1.1"
   id="Layer_1"
   x="0px"
   y="0px"
   viewBox="0 0 22.999999 23"
   xml:space="preserve"
   sodipodi:docname="polygon-matic-logo.svg"
   inkscape:version="1.3.2 (091e20e, 2023-11-25, custom)"
   width="23"
   height="23"
   xmlns:inkscape="http://www.inkscape.org/namespaces/inkscape"
   xmlns:sodipodi="http://sodipodi.sourceforge.net/DTD/sodipodi-0.dtd"
   xmlns="http://www.w3.org/2000/svg"
   xmlns:svg="http://www.w3.org/2000/svg"><defs
   id="defs1">
	
</defs><sodipodi:namedview
   id="namedview1"
   pagecolor="#ffffff"
   bordercolor="#000000"
   borderopacity="0.25"
   inkscape:showpageshadow="2"
   inkscape:pageopacity="0.0"
   inkscape:pagecheckerboard="0"
   inkscape:deskcolor="#d1d1d1"
   inkscape:zoom="25.253731"
   inkscape:cx="19.185284"
   inkscape:cy="16.690603"
   inkscape:window-width="1920"
   inkscape:window-height="1111"
   inkscape:window-x="-9"
   inkscape:window-y="-9"
   inkscape:window-maximized="1"
   inkscape:current-layer="Layer_1" />
<style
   type="text/css"
   id="style1">
	.st0{fill:#8247E5;}
</style>
<path
   class="st0"
   d="m 17.415144,7.0296737 c -0.420366,-0.2729971 -0.960836,-0.2729971 -1.441254,0 l -3.362924,2.2522255 -2.281984,1.4332348 -3.3028723,2.252225 c -0.4203656,0.272998 -0.9608355,0.272998 -1.4412533,0 L 3.002611,11.192879 C 2.5822454,10.919881 2.2819843,10.373887 2.2819843,9.7596441 v -3.412463 c 0,-0.5459941 0.2402089,-1.0919882 0.7206267,-1.4332344 L 5.5848564,3.2077151 c 0.4203655,-0.2729969 0.9608355,-0.2729969 1.4412533,0 L 9.6083551,4.9821959 C 10.028721,5.2551929 10.328982,5.801187 10.328982,6.4154302 V 8.6676559 L 12.610966,7.1661721 V 4.8456974 c 0,-0.5459941 -0.240209,-1.0919881 -0.720627,-1.4332344 L 7.0861619,0.20474778 c -0.4203656,-0.27299704 -0.9608355,-0.27299704 -1.4412533,0 L 0.72062663,3.4807123 C 0.24020888,3.7537093 0,4.2997033 0,4.8456974 v 6.4154296 c 0,0.545994 0.24020888,1.091989 0.72062663,1.433235 l 4.86422977,3.207715 c 0.4203655,0.272997 0.9608355,0.272997 1.4412533,0 l 3.3028723,-2.183977 2.281984,-1.501484 3.302872,-2.183975 c 0.420366,-0.2729969 0.960836,-0.2729969 1.441253,0 l 2.582246,1.706231 c 0.420365,0.272997 0.720626,0.818991 0.720626,1.433234 v 3.412463 c 0,0.545995 -0.240208,1.091989 -0.720626,1.433235 l -2.522193,1.706231 c -0.420366,0.272997 -0.960836,0.272997 -1.441254,0 l -2.582245,-1.706231 c -0.420366,-0.272996 -0.720627,-0.818991 -0.720627,-1.433235 v -2.183976 l -2.281984,1.501484 v 2.252226 c 0,0.545995 0.240209,1.091987 0.720627,1.433234 l 4.864229,3.207715 c 0.420366,0.272997 0.960836,0.272997 1.441254,0 l 4.864229,-3.207715 C 22.699739,19.31454 23,18.768546 23,18.154303 v -6.483678 c 0,-0.545996 -0.240209,-1.09199 -0.720627,-1.433236 z"
   id="path1"
   style="fill:#ffffff;stroke-width:0.640197" />
</svg>
