<?xml version="1.0" encoding="UTF-8" standalone="no"?>
<svg
   width="23"
   height="23"
   viewBox="0 0 23 23"
   fill="none"
   version="1.1"
   id="svg6"
   sodipodi:docname="solanaLogoMark.svg"
   inkscape:version="1.3.2 (091e20e, 2023-11-25, custom)"
   xmlns:inkscape="http://www.inkscape.org/namespaces/inkscape"
   xmlns:sodipodi="http://sodipodi.sourceforge.net/DTD/sodipodi-0.dtd"
   xmlns="http://www.w3.org/2000/svg"
   xmlns:svg="http://www.w3.org/2000/svg">
  <sodipodi:namedview
     id="namedview6"
     pagecolor="#ffffff"
     bordercolor="#000000"
     borderopacity="0.25"
     inkscape:showpageshadow="2"
     inkscape:pageopacity="0.0"
     inkscape:pagecheckerboard="0"
     inkscape:deskcolor="#d1d1d1"
     inkscape:zoom="9.6136364"
     inkscape:cx="50.449172"
     inkscape:cy="6.7092198"
     inkscape:window-width="1920"
     inkscape:window-height="1111"
     inkscape:window-x="-9"
     inkscape:window-y="-9"
     inkscape:window-maximized="1"
     inkscape:current-layer="svg6" />
  <path
     d="M 0.11843202,17.556993 3.915297,21.713991 c 0.08253,0.0903 0.182406,0.162297 0.293375,0.211505 0.110969,0.04921 0.230683,0.07457 0.351649,0.0745 h 17.998892 c 0.08588,0 0.169894,-0.02563 0.241711,-0.07369 0.07182,-0.04809 0.128313,-0.116526 0.162545,-0.196947 0.03423,-0.0804 0.04471,-0.169264 0.03015,-0.255675 -0.01457,-0.08641 -0.05354,-0.166592 -0.112127,-0.230689 l -3.799711,-4.156996 c -0.08232,-0.09006 -0.181859,-0.161915 -0.292464,-0.211098 -0.110627,-0.04921 -0.229954,-0.07469 -0.350624,-0.07491 H 0.44079702 c -0.08588,0 -0.169881,0.02563 -0.241751,0.07369 -0.07173,0.04809 -0.128208,0.11655 -0.162594,0.196947 -0.03416,0.08042 -0.04463,0.169264 -0.03006,0.255675 0.01457,0.08641 0.05351,0.166592 0.11204,0.23069 z M 3.915297,9.1859898 c 0.08253,-0.0903 0.182406,-0.1622966 0.293375,-0.2115034 0.110969,-0.049183 0.230683,-0.07455 0.351649,-0.074478 h 17.998892 c 0.08588,0 0.169894,0.025606 0.241711,0.073691 0.07182,0.048085 0.128313,0.1165263 0.162545,0.1969228 0.03423,0.08042 0.04471,0.1692886 0.03015,0.2556988 -0.01457,0.086386 -0.05354,0.1665681 -0.112127,0.2306898 l -3.799706,4.1569972 c -0.08232,0.09006 -0.181859,0.161891 -0.292464,0.211098 -0.110627,0.04918 -0.229954,0.07469 -0.350624,0.07488 H 0.44080202 c -0.08588,0 -0.169881,-0.02561 -0.241751,-0.07369 -0.07173,-0.04809 -0.128208,-0.116526 -0.162594,-0.196923 -0.03416,-0.08042 -0.04463,-0.169287 -0.03006,-0.255699 0.01457,-0.08639 0.05351,-0.166567 0.112039,-0.230688 z M 22.559213,6.2000049 H 4.560321 C 4.439355,6.2000527 4.319641,6.1747099 4.208672,6.1255029 4.097703,6.0762959 3.997824,6.0042993 3.915297,5.9139994 L 0.11843202,1.7569998 c -0.05852,-0.064102 -0.09746,-0.1442819 -0.112039,-0.2306874 -0.01457,-0.086405 -0.0041,-0.1752712 0.03006,-0.2556797 0.03439,-0.080408 0.09086,-0.1488575 0.162594,-0.1969363 C 0.27091602,1.0256174 0.35492202,1.000003 0.44079702,1 H 18.438693 c 0.12067,2.096e-4 0.239997,0.025701 0.350624,0.074896 0.110605,0.049195 0.210143,0.1210457 0.292464,0.2111054 l 3.798727,4.1570019 c 0.05853,0.064026 0.09749,0.1441363 0.112086,0.2304272 0.0146,0.086315 0.0042,0.1751114 -0.02991,0.255484 -0.03411,0.080373 -0.09046,0.1488137 -0.162126,0.1969705 -0.07167,0.048157 -0.155547,0.073906 -0.241346,0.07412 z"
     id="path1"
     style="fill:#f9f9f9;stroke-width:0.233116" />
  <defs
     id="defs6">
    <linearGradient
       id="paint0_linear_174_4403"
       x1="8.5255804"
       y1="90.097298"
       x2="88.993301"
       y2="-3.0162201"
       gradientUnits="userSpaceOnUse">
      <stop
         offset="0.08"
         stop-color="#9945FF"
         id="stop1" />
      <stop
         offset="0.3"
         stop-color="#8752F3"
         id="stop2" />
      <stop
         offset="0.5"
         stop-color="#5497D5"
         id="stop3" />
      <stop
         offset="0.6"
         stop-color="#43B4CA"
         id="stop4" />
      <stop
         offset="0.72"
         stop-color="#28E0B9"
         id="stop5" />
      <stop
         offset="0.97"
         stop-color="#19FB9B"
         id="stop6" />
    </linearGradient>
  </defs>
</svg>
