<?xml version="1.0" encoding="UTF-8" standalone="no"?>
<svg
   width="23"
   height="23"
   viewBox="0 0 23 2.3"
   version="1.1"
   id="svg1"
   sodipodi:docname="telegram.svg"
   inkscape:version="1.3.2 (091e20e, 2023-11-25, custom)"
   xmlns:inkscape="http://www.inkscape.org/namespaces/inkscape"
   xmlns:sodipodi="http://sodipodi.sourceforge.net/DTD/sodipodi-0.dtd"
   xmlns="http://www.w3.org/2000/svg"
   xmlns:svg="http://www.w3.org/2000/svg">
  <defs
     id="defs1" />
  <sodipodi:namedview
     id="namedview1"
     pagecolor="#ffffff"
     bordercolor="#000000"
     borderopacity="0.25"
     inkscape:showpageshadow="2"
     inkscape:pageopacity="0.0"
     inkscape:pagecheckerboard="0"
     inkscape:deskcolor="#d1d1d1"
     inkscape:zoom="14.1"
     inkscape:cx="-12.659574"
     inkscape:cy="22.87234"
     inkscape:window-width="1920"
     inkscape:window-height="1111"
     inkscape:window-x="-9"
     inkscape:window-y="-9"
     inkscape:window-maximized="1"
     inkscape:current-layer="svg1" />
  <g
     id="surface1"
     transform="matrix(0.95828643,0,0,1,4.3006441e-4,-11.848698)">
    <path
       style="fill-opacity:1;fill-rule:evenodd;stroke:none"
       d="m 18.382812,22.777344 c 0.324219,0.226562 0.738282,0.285156 1.109376,0.148437 0.371093,-0.144531 0.640624,-0.457031 0.722656,-0.839843 C 21.085938,18 23.191406,7.664062 23.984375,3.949219 24.042969,3.667969 23.941406,3.375 23.722656,3.191406 23.503906,3.003906 23.195312,2.945312 22.929688,3.050781 18.734375,4.601562 5.820312,9.449219 0.542969,11.402344 0.207031,11.523438 -0.0117188,11.84375 0,12.199219 c 0.0117188,0.355469 0.25,0.660156 0.589844,0.761719 2.371094,0.710937 5.476562,1.695312 5.476562,1.695312 0,0 1.453125,4.382812 2.207032,6.613281 0.097656,0.28125 0.316406,0.5 0.605468,0.578125 0.289063,0.07422 0.597656,-0.0039 0.808594,-0.207031 1.21875,-1.148437 3.097656,-2.921875 3.097656,-2.921875 0,0 3.570313,2.617188 5.597656,4.058594 z M 7.375,14.101562 l 1.679688,5.535157 0.375,-3.503907 c 0,0 6.484374,-5.847656 10.179687,-9.1875 0.109375,-0.097656 0.121094,-0.261718 0.03516,-0.375 -0.08984,-0.113281 -0.253906,-0.140624 -0.375,-0.066406 C 14.984375,9.246094 7.375,14.101562 7.375,14.101562 Z m 0,0"
       id="path1" />
  </g>
</svg>
