<?xml version="1.0" encoding="UTF-8"?>
<svg xmlns="http://www.w3.org/2000/svg" xmlns:xlink="http://www.w3.org/1999/xlink" width="23px" height="23px" viewBox="0 0 23 23" version="1.1">
<g id="surface1">
<path style=" stroke:none;fill-rule:evenodd;fill:rgb(255, 255, 255);fill-opacity:1;" d="M 17.617188 21.828125 C 17.925781 22.046875 18.324219 22.101562 18.679688 21.96875 C 19.035156 21.832031 19.292969 21.53125 19.371094 21.164062 C 20.207031 17.25 22.226562 7.34375 22.984375 3.785156 C 23.042969 3.515625 22.945312 3.234375 22.734375 3.058594 C 22.523438 2.878906 22.230469 2.824219 21.972656 2.921875 C 17.953125 4.410156 5.578125 9.054688 0.519531 10.925781 C 0.199219 11.042969 -0.0117188 11.351562 0 11.691406 C 0.0117188 12.03125 0.238281 12.324219 0.566406 12.421875 C 2.835938 13.101562 5.8125 14.046875 5.8125 14.046875 C 5.8125 14.046875 7.207031 18.246094 7.929688 20.382812 C 8.023438 20.652344 8.230469 20.863281 8.507812 20.9375 C 8.785156 21.007812 9.082031 20.933594 9.285156 20.738281 C 10.453125 19.636719 12.253906 17.9375 12.253906 17.9375 C 12.253906 17.9375 15.675781 20.445312 17.617188 21.828125 Z M 7.066406 13.515625 L 8.675781 18.820312 L 9.035156 15.460938 C 9.035156 15.460938 15.25 9.855469 18.792969 6.65625 C 18.898438 6.5625 18.910156 6.40625 18.824219 6.296875 C 18.738281 6.1875 18.582031 6.160156 18.464844 6.234375 C 14.359375 8.859375 7.066406 13.515625 7.066406 13.515625 Z M 7.066406 13.515625 "/>
</g>
</svg>
