<?xml version="1.0" encoding="UTF-8"?>
<svg xmlns="http://www.w3.org/2000/svg" xmlns:xlink="http://www.w3.org/1999/xlink" width="24px" height="240px" viewBox="0 0 24 24" version="1.1">
<g id="surface1">
<path style=" stroke:none;fill-rule:evenodd;fill:rgb(100%,100%,100%);fill-opacity:1;" d="M 18.382812 22.777344 C 18.707031 23.003906 19.121094 23.0625 19.492188 22.925781 C 19.863281 22.78125 20.132812 22.46875 20.214844 22.085938 C 21.085938 18 23.191406 7.664062 23.984375 3.949219 C 24.042969 3.667969 23.941406 3.375 23.722656 3.191406 C 23.503906 3.003906 23.195312 2.945312 22.929688 3.050781 C 18.734375 4.601562 5.820312 9.449219 0.542969 11.402344 C 0.207031 11.523438 -0.0117188 11.84375 0 12.199219 C 0.0117188 12.554688 0.25 12.859375 0.589844 12.960938 C 2.960938 13.671875 6.066406 14.65625 6.066406 14.65625 C 6.066406 14.65625 7.519531 19.039062 8.273438 21.269531 C 8.371094 21.550781 8.589844 21.769531 8.878906 21.847656 C 9.167969 21.921875 9.476562 21.84375 9.6875 21.640625 C 10.90625 20.492188 12.785156 18.71875 12.785156 18.71875 C 12.785156 18.71875 16.355469 21.335938 18.382812 22.777344 Z M 7.375 14.101562 L 9.054688 19.636719 L 9.429688 16.132812 C 9.429688 16.132812 15.914062 10.285156 19.609375 6.945312 C 19.71875 6.847656 19.730469 6.683594 19.644531 6.570312 C 19.554688 6.457031 19.390625 6.429688 19.269531 6.503906 C 14.984375 9.246094 7.375 14.101562 7.375 14.101562 Z M 7.375 14.101562 "/>
</g>
</svg>
