<?xml version="1.0" encoding="UTF-8" standalone="no"?>
<svg
   width="23"
   height="23"
   viewBox="0 0 23 23"
   version="1.1"
   id="svg1"
   sodipodi:docname="tron.svg"
   inkscape:version="1.3.2 (091e20e, 2023-11-25, custom)"
   xmlns:inkscape="http://www.inkscape.org/namespaces/inkscape"
   xmlns:sodipodi="http://sodipodi.sourceforge.net/DTD/sodipodi-0.dtd"
   xmlns="http://www.w3.org/2000/svg"
   xmlns:svg="http://www.w3.org/2000/svg">
  <defs
     id="defs1" />
  <sodipodi:namedview
     id="namedview1"
     pagecolor="#ffffff"
     bordercolor="#000000"
     borderopacity="0.25"
     inkscape:showpageshadow="2"
     inkscape:pageopacity="0.0"
     inkscape:pagecheckerboard="0"
     inkscape:deskcolor="#d1d1d1"
     inkscape:zoom="35.25"
     inkscape:cx="12.014184"
     inkscape:cy="11.985816"
     inkscape:window-width="1920"
     inkscape:window-height="1111"
     inkscape:window-x="-9"
     inkscape:window-y="-9"
     inkscape:window-maximized="1"
     inkscape:current-layer="svg1" />
  <g
     id="surface1"
     transform="matrix(1.0083111,0,0,0.95831955,-0.58686832,-1.4390505e-5)">
    <path
       style="fill-opacity:1;fill-rule:nonzero;stroke:none"
       d="m 23.082031,7.230469 c -1.125,-1.039063 -2.683593,-2.625 -3.949219,-3.75 L 19.058594,3.425781 C 18.933594,3.328125 18.792969,3.25 18.640625,3.195312 15.585938,2.625 1.359375,-0.0351562 1.082031,0 1.007812,0.0117188 0.933594,0.0390625 0.867188,0.0820312 L 0.796875,0.140625 C 0.707031,0.226562 0.640625,0.335938 0.601562,0.453125 L 0.582031,0.503906 V 0.808594 C 2.183594,5.269531 8.503906,19.875 9.75,23.300781 9.824219,23.535156 9.96875,23.976562 10.234375,24 h 0.05859 c 0.144531,0 0.75,-0.800781 0.75,-0.800781 0,0 10.859375,-13.171875 11.960937,-14.574219 0.140625,-0.171875 0.265625,-0.359375 0.375,-0.554688 0.05469,-0.3125 -0.05859,-0.632812 -0.296875,-0.839843 z m -9.253906,1.535156 4.636719,-3.84375 2.71875,2.503906 z M 12.03125,8.511719 4.050781,1.972656 16.960938,4.355469 Z m 0.71875,1.714843 8.167969,-1.316406 -9.339844,11.25 z M 2.964844,2.625 11.363281,9.75 10.148438,20.167969 Z m 0,0"
       id="path1" />
  </g>
</svg>
