<?xml version="1.0" encoding="UTF-8" standalone="no"?>
<svg
   width="24px"
   height="24px"
   viewBox="0 0 24 24"
   version="1.1"
   id="svg1"
   sodipodi:docname="tron.svg"
   inkscape:version="1.3.2 (091e20e, 2023-11-25, custom)"
   xmlns:inkscape="http://www.inkscape.org/namespaces/inkscape"
   xmlns:sodipodi="http://sodipodi.sourceforge.net/DTD/sodipodi-0.dtd"
   xmlns="http://www.w3.org/2000/svg"
   xmlns:svg="http://www.w3.org/2000/svg">
  <defs
     id="defs1" />
  <sodipodi:namedview
     id="namedview1"
     pagecolor="#ffffff"
     bordercolor="#000000"
     borderopacity="0.25"
     inkscape:showpageshadow="2"
     inkscape:pageopacity="0.0"
     inkscape:pagecheckerboard="0"
     inkscape:deskcolor="#d1d1d1"
     inkscape:zoom="35.25"
     inkscape:cx="11.985816"
     inkscape:cy="11.985816"
     inkscape:window-width="1920"
     inkscape:window-height="1111"
     inkscape:window-x="-9"
     inkscape:window-y="-9"
     inkscape:window-maximized="1"
     inkscape:current-layer="svg1" />
  <g
     id="surface1"
     style="fill:#ffffff">
    <path
       style="stroke:none;fill-rule:nonzero;fill:#ffffff;fill-opacity:1"
       d="M 23.082031 7.230469 C 21.957031 6.191406 20.398438 4.605469 19.132812 3.480469 L 19.058594 3.425781 C 18.933594 3.328125 18.792969 3.25 18.640625 3.195312 C 15.585938 2.625 1.359375 -0.0351562 1.082031 0 C 1.007812 0.0117188 0.933594 0.0390625 0.867188 0.0820312 L 0.796875 0.140625 C 0.707031 0.226562 0.640625 0.335938 0.601562 0.453125 L 0.582031 0.503906 L 0.582031 0.808594 C 2.183594 5.269531 8.503906 19.875 9.75 23.300781 C 9.824219 23.535156 9.96875 23.976562 10.234375 24 L 10.292969 24 C 10.4375 24 11.042969 23.199219 11.042969 23.199219 C 11.042969 23.199219 21.902344 10.027344 23.003906 8.625 C 23.144531 8.453125 23.269531 8.265625 23.378906 8.070312 C 23.433594 7.757812 23.320312 7.4375 23.082031 7.230469 Z M 13.828125 8.765625 L 18.464844 4.921875 L 21.183594 7.425781 Z M 12.03125 8.511719 L 4.050781 1.972656 L 16.960938 4.355469 Z M 12.75 10.226562 L 20.917969 8.910156 L 11.578125 20.160156 Z M 2.964844 2.625 L 11.363281 9.75 L 10.148438 20.167969 Z M 2.964844 2.625 "
       id="path1" />
  </g>
</svg>
