<?xml version="1.0" encoding="UTF-8" standalone="no"?>
<svg
   width="23"
   height="23"
   viewBox="0 0 23 23"
   version="1.1"
   id="svg1"
   sodipodi:docname="twitter.svg"
   inkscape:version="1.3.2 (091e20e, 2023-11-25, custom)"
   xmlns:inkscape="http://www.inkscape.org/namespaces/inkscape"
   xmlns:sodipodi="http://sodipodi.sourceforge.net/DTD/sodipodi-0.dtd"
   xmlns="http://www.w3.org/2000/svg"
   xmlns:svg="http://www.w3.org/2000/svg">
  <defs
     id="defs1" />
  <sodipodi:namedview
     id="namedview1"
     pagecolor="#ffffff"
     bordercolor="#000000"
     borderopacity="0.25"
     inkscape:showpageshadow="2"
     inkscape:pageopacity="0.0"
     inkscape:pagecheckerboard="0"
     inkscape:deskcolor="#d1d1d1"
     inkscape:zoom="35.25"
     inkscape:cx="11.985816"
     inkscape:cy="11.985816"
     inkscape:window-width="1920"
     inkscape:window-height="1111"
     inkscape:window-x="-9"
     inkscape:window-y="-9"
     inkscape:window-maximized="1"
     inkscape:current-layer="svg1" />
  <path
     d="M 23,4.2493335 C 22.153792,4.6312038 21.244333,4.8883819 20.289833,5.0043068 21.264458,4.411044 22.012917,3.4709803 22.364625,2.3506973 21.45325,2.900123 20.443167,3.2995283 19.367917,3.5148174 18.508292,2.5825472 17.280667,2 15.923667,2 12.877125,2 10.638458,4.8893561 11.326542,7.888792 7.406,7.6890895 3.9291667,5.7797374 1.601375,2.8777174 0.365125,5.0335316 0.96025,7.8537224 3.0609167,9.2818396 2.2885,9.2565115 1.5601667,9.0412224 0.92479167,8.6817576 0.87304167,10.903815 2.4399167,12.98267 4.70925,13.445396 4.045125,13.628537 3.31775,13.671401 2.5779167,13.527228 3.1778333,15.432683 4.9200833,16.818912 6.98625,16.857879 5.0025,18.438935 2.5031667,19.145201 0,18.845159 2.0882083,20.206061 4.5693333,21 7.2335,21 15.994583,21 20.944375,13.478518 20.645375,6.7324651 21.567292,6.0554245 22.3675,5.2108286 23,4.2493335 Z"
     id="path1"
     style="stroke-width:0.966217" />
</svg>
