<?xml version="1.0" encoding="UTF-8" standalone="no"?>
<svg
   version="1.1"
   width="23"
   height="23"
   id="svg5"
   sodipodi:docname="wechat.svg"
   inkscape:version="1.4.2 (f4327f4, 2025-05-13)"
   xmlns:inkscape="http://www.inkscape.org/namespaces/inkscape"
   xmlns:sodipodi="http://sodipodi.sourceforge.net/DTD/sodipodi-0.dtd"
   xmlns="http://www.w3.org/2000/svg"
   xmlns:svg="http://www.w3.org/2000/svg">
  <defs
     id="defs5" />
  <sodipodi:namedview
     id="namedview5"
     pagecolor="#ffffff"
     bordercolor="#000000"
     borderopacity="0.25"
     inkscape:showpageshadow="2"
     inkscape:pageopacity="0.0"
     inkscape:pagecheckerboard="0"
     inkscape:deskcolor="#d1d1d1"
     inkscape:zoom="18.009126"
     inkscape:cx="32.067075"
     inkscape:cy="12.243792"
     inkscape:window-width="1920"
     inkscape:window-height="1017"
     inkscape:window-x="-8"
     inkscape:window-y="-8"
     inkscape:window-maximized="1"
     inkscape:current-layer="svg5" />
  <g
     id="g5"
     transform="matrix(0.05312096,0,0,0.05743068,-1.5936288,-1.7229225)">
    <path
       d="m 195.21821,30.048915 c 0.82133,-0.007 1.64266,-0.01403 2.48888,-0.02126 2.63267,-0.01739 5.26511,-0.02385 7.89784,-0.02562 1.3485,-10e-4 1.3485,-10e-4 2.72424,-0.002 12.89411,0.0154 25.34752,0.358527 37.96326,3.252045 0.80131,0.171606 1.60263,0.343213 2.42822,0.520019 45.40842,9.811159 86.97663,35.179297 112.57178,74.479971 12.46304,19.65191 20.63637,42.05234 21.31641,65.46485 0.0208,0.67817 0.0416,1.35634 0.063,2.05507 0.0647,2.13911 0.12401,4.27832 0.18312,6.41758 0.0433,1.4616 0.0869,2.92319 0.13086,4.38477 0.10633,3.55913 0.20781,7.11838 0.30664,10.67773 1.16016,0.49629 2.32031,0.99258 3.51562,1.50391 30.2825,13.10032 56.31354,32.80592 69.35938,63.99609 9.25706,23.53194 8.97343,49.32111 -0.25,72.8125 -0.85065,1.90689 -1.72514,3.80334 -2.625,5.6875 -0.64389,1.34965 -0.64389,1.34965 -1.30078,2.72657 -7.54656,14.75298 -19.64173,29.32776 -33.69922,38.27343 0.75469,8.59922 3.23985,16.71377 5.56055,25.00196 1.76419,6.53445 2.98778,12.22371 2.43945,18.99804 -1.5,2.5625 -1.5,2.5625 -4,4 -5.94459,0.67452 -8.92395,-0.01 -13.63184,-3.65844 -0.63712,-0.52521 -1.27423,-1.05043 -1.93066,-1.59156 -0.67966,-0.53488 -1.35932,-1.06975 -2.05957,-1.62084 -2.14104,-1.69173 -4.25956,-3.40915 -6.37793,-5.12916 -1.40884,-1.12274 -2.81898,-2.24386 -4.23047,-3.36327 -2.56251,-2.03582 -5.11586,-4.08209 -7.66016,-6.14063 -1.53914,-1.23557 -1.53914,-1.23557 -3.10937,-2.4961 -0.7309,-0.60972 -1.4618,-1.21945 -2.21484,-1.84765 -3.10042,-2.00137 -6.36039,-0.84141 -9.78516,-0.15235 -1.75184,0.35192 -1.75184,0.35192 -3.53906,0.71094 -2.52968,0.51202 -5.05722,1.03483 -7.58203,1.57031 -35.75436,6.62518 -75.57732,-0.52668 -105.81275,-21.09155 -6.43053,-4.5917 -12.34966,-9.74245 -18.06616,-15.1897 -0.58781,-0.51304 -1.17563,-1.02609 -1.78125,-1.55468 -9.81065,-8.9314 -16.74602,-21.52429 -22.21875,-33.44532 -0.98505,-0.014 -0.98505,-0.014 -1.98999,-0.0283 -20.80218,-0.36757 -41.25897,-2.15691 -61.21704,-8.33496 -2.93634,-0.6694 -4.01204,-0.59123 -6.79297,0.36328 -1.74692,1.11822 -1.74692,1.11822 -3.39844,2.55469 -0.63696,0.52675 -1.27391,1.05349 -1.93017,1.59619 -1.01296,0.85344 -1.01296,0.85344 -2.04639,1.72412 -1.44192,1.19367 -2.88464,2.38636 -4.32813,3.57813 -0.72251,0.59877 -1.44503,1.19754 -2.18945,1.81445 -3.04087,2.49977 -6.13017,4.93452 -9.23242,7.35742 -0.56243,0.44014 -1.12487,0.88027 -1.70435,1.33374 -1.13744,0.88967 -2.27521,1.77892 -3.41333,2.66773 -3.11092,2.43152 -6.21507,4.87165 -9.31982,7.31103 -0.57186,0.44876 -1.14372,0.89751 -1.73291,1.35987 -2.48579,1.95191 -4.938575,3.90659 -7.321775,5.98388 -3.253,2.34643 -5.391971,2.35892 -9.28906,2.16407 -2.09378,-0.44534 -2.09378,-0.44534 -4.65628,-2.50784 -3.426219,-7.0014 -0.518047,-14.28183 1.441406,-21.38281 0.597075,-2.23305 1.194078,-4.46613 1.791016,-6.69922 0.947282,-3.50103 1.898183,-7.00104 2.851318,-10.50048 0.919915,-3.38941 1.826787,-6.78212 2.73267,-10.1753 0.28952,-1.04592 0.57904,-2.09184 0.87733,-3.16946 0.26035,-0.97807 0.52069,-1.95613 0.78893,-2.96384 0.23316,-0.85603 0.46632,-1.71205 0.70655,-2.59402 0.42592,-2.79822 0.18104,-4.7478 -0.62672,-7.45237 -1.9331,-2.0182 -1.9331,-2.0182 -4.4375,-3.75 -5.464501,-4.14521 -10.538288,-8.58405 -15.5625,-13.25 -0.60457,-0.55043 -1.209141,-1.10085 -1.832031,-1.66796 -22.483958,-21.32554 -38.736943,-54.72409 -40.344971,-85.74683 -0.284837,-16.57386 -0.401665,-32.50156 4.177002,-48.58521 0.272878,-1.00039 0.272878,-1.00039 0.55127,-2.02099 6.349294,-22.77008 19.531365,-42.80801 35.44873,-59.979005 0.697383,-0.768282 1.394766,-1.536563 2.113281,-2.328125 14.115516,-14.8712 32.419474,-26.117964 50.886714,-34.67191 1.69189,-0.800508 1.69189,-0.800508 3.41797,-1.617188 21.16841,-9.57914 45.23371,-15.452207 68.50781,-15.585937 z M 91.292435,88.25204 c -0.77859,0.644531 -1.557187,1.289062 -2.359375,1.953125 -6.002419,5.091707 -10.840096,10.826835 -15.640625,17.046875 -0.657422,0.81855 -1.314844,1.63711 -1.992188,2.48047 -9.70763,12.57314 -16.865484,27.21313 -21.007812,42.51953 -0.317109,1.05832 -0.634219,2.11665 -0.960938,3.20704 -4.785961,18.85844 -4.049282,41.29118 1.960938,59.79296 0.32146,1.01442 0.32146,1.01442 0.649414,2.04932 9.351442,28.76896 28.591196,52.9689 53.349601,70.19775 6.22948,4.36927 6.22948,4.36927 7.00098,7.75293 -0.38034,8.68781 -3.33845,17.1096 -5.64844,25.44141 -0.47179,1.75377 -0.47179,1.75377 -0.95312,3.54297 -0.29214,1.05929 -0.58427,2.11857 -0.88526,3.20996 -0.50104,2.7393 -0.44797,4.2212 0.48682,6.80566 0.8482,-0.66644 1.69641,-1.33289 2.57031,-2.01953 0.56018,-0.44013 1.12036,-0.88027 1.69751,-1.33374 1.25051,-0.98255 2.501,-1.96514 3.75147,-2.94775 3.2834,-2.58002 6.56717,-5.15958 9.8518,-7.73804 0.61924,-0.48622 1.23847,-0.97243 1.87647,-1.47339 1.18117,-0.92742 2.36248,-1.85468 3.54394,-2.78173 2.46754,-1.93774 4.84985,-3.84211 7.11084,-6.02222 3.56694,-2.31181 6.52681,-2.25477 10.59766,-1.6836 3.49068,0.77152 6.89119,1.78017 10.3125,2.8125 16.83894,4.8065 33.21637,6.65361 50.6875,7.1875 -0.0209,-0.91064 -0.0419,-1.82128 -0.0635,-2.75952 -0.67931,-34.00204 -0.67931,-34.00204 4.06348,-47.24048 0.4241,-1.19625 0.8482,-2.3925 1.28516,-3.625 6.3744,-16.19346 17.09532,-31.51714 30.71484,-42.375 0.89848,-0.75796 1.79695,-1.51593 2.72266,-2.29687 24.26961,-19.75933 54.65194,-28.89178 85.63818,-28.88843 2.23799,-0.002 4.47548,-0.0203 6.71338,-0.0393 9.16921,-0.0346 17.87201,0.6333 26.92578,2.2246 0.45916,-15.1982 0.45423,-29.37995 -4,-44 -0.35063,-1.19238 -0.70125,-2.38476 -1.0625,-3.61328 -7.34009,-22.50458 -22.23154,-44.73261 -40.93748,-59.38672 -0.94102,-0.765703 -1.88203,-1.531407 -2.85156,-2.320313 C 251.91216,32.144356 153.72425,34.458587 91.292435,88.25204 Z m 155.437495,153.125 c -8.5815,8.76358 -15.16231,19.3697 -19.4375,30.875 -0.39188,1.04672 -0.78375,2.09344 -1.1875,3.17188 -6.59926,20.62269 -3.69585,42.26222 6.05493,61.2583 2.8639,5.32761 6.11851,10.03479 10.13257,14.56982 0.68836,0.81856 1.37672,1.63711 2.08594,2.48047 18.48893,21.44068 47.60443,35.0912 75.77246,37.39063 17.84694,1.07423 35.40667,0.37388 52.48926,-5.32031 4.71795,-0.97973 9.30704,-1.7976 13.71753,0.54712 2.01631,1.50297 3.88352,3.08906 5.74731,4.77709 1.27485,1.10445 2.55212,2.20611 3.83203,3.30469 0.55019,0.49226 1.10038,0.98452 1.66724,1.4917 1.80102,1.41738 3.61081,2.37277 5.68823,3.32861 -0.45053,-1.82724 -0.45053,-1.82724 -0.91016,-3.6914 -0.38477,-1.62354 -0.76884,-3.24725 -1.15234,-4.8711 -0.19916,-0.79986 -0.39832,-1.59972 -0.60352,-2.42382 -1.14803,-4.93453 -1.86169,-9.05012 -0.33398,-14.01368 1.97432,-1.94715 3.61371,-3.30219 5.875,-4.8125 1.19399,-0.86231 2.38536,-1.72828 3.57422,-2.59765 0.59861,-0.432 1.19722,-0.864 1.81396,-1.30908 16.44086,-12.12381 29.86899,-31.63625 33.43946,-51.96338 3.1035,-24.18589 -2.58126,-46.30936 -17.44483,-65.66114 -7.14884,-8.4104 -14.80875,-15.86489 -24.25781,-21.65625 -0.81815,-0.51941 -0.81815,-0.51941 -1.65283,-1.04931 -48.71986,-30.68433 -113.55903,-22.94579 -154.90967,16.17431 z"
       fill="#000000"
       id="path1" />
    <path
       d="M 287.89062,130.74219 C 296.2353,135.71809 301.42449,142.60565 304,152 c 0.99851,11.09977 0.34947,20.73449 -6.75,29.8125 -5.66968,6.07056 -12.72257,9.78402 -21.01954,10.52344 C 268.44937,192.50966 261.72151,192.32864 255,188 c -0.70641,-0.4357 -1.41282,-0.8714 -2.14063,-1.32031 C 245.95352,181.99906 242.20284,175.99979 240,168 c -0.99852,-11.09977 -0.34948,-20.73448 6.75,-29.8125 10.2979,-11.02603 27.54613,-13.96884 41.14062,-7.44531 z M 258.625,151.625 c -2.20408,4.5777 -2.42217,8.38053 -1.625,13.375 2.32968,4.83859 5.16141,7.67031 10,10 4.99447,0.79717 8.79729,0.57908 13.375,-1.625 3.58407,-3.24273 6.22035,-5.83976 7.00781,-10.77344 C 287.63883,156.91777 286.93626,153.35062 283,149 c -4.35062,-3.93627 -7.91778,-4.63884 -13.60157,-4.38281 -4.93368,0.78746 -7.5307,3.42373 -10.77343,7.00781 z"
       fill="#000000"
       id="path2" />
    <path
       d="M 175.89062,130.74219 C 184.2353,135.71809 189.42449,142.60565 192,152 c 0.99851,11.09977 0.34947,20.73449 -6.75,29.8125 -5.66968,6.07056 -12.72257,9.78402 -21.01954,10.52344 C 156.44937,192.50966 149.72151,192.32864 143,188 c -0.70641,-0.4357 -1.41282,-0.8714 -2.14063,-1.32031 C 133.95352,181.99906 130.20284,175.99979 128,168 c -0.99852,-11.09977 -0.34948,-20.73448 6.75,-29.8125 10.2979,-11.02603 27.54613,-13.96884 41.14062,-7.44531 z M 146.625,151.625 c -2.20408,4.5777 -2.42217,8.38053 -1.625,13.375 2.32968,4.83859 5.16141,7.67031 10,10 4.99447,0.79717 8.79729,0.57908 13.375,-1.625 3.58407,-3.24273 6.22035,-5.83976 7.00781,-10.77344 C 175.63883,156.91777 174.93626,153.35062 171,149 c -4.35062,-3.93627 -7.91777,-4.63884 -13.60157,-4.38281 -4.93368,0.78746 -7.5307,3.42373 -10.77343,7.00781 z"
       fill="#000000"
       id="path3" />
    <path
       d="m 395.4375,273.5 c 5.82486,3.51997 10.54467,8.98963 12.5625,15.5 0.80514,7.83608 1.1246,15.61923 -4,22 -4.80449,5.04521 -9.16177,8.60563 -16.26953,9.33594 -8.51624,0.0939 -14.40643,-0.21821 -20.69531,-6.20703 -6.38183,-6.90386 -7.51558,-12.33059 -7.33985,-21.6836 0.69529,-7.86212 4.35223,-11.9949 10.20703,-17 7.06438,-4.86744 17.6912,-5.42126 25.53516,-1.94531 z m -16.8125,17.125 c -2.11207,3.08686 -2.23695,4.70329 -1.625,8.375 1.5,2.5 1.5,2.5 4,4 3.67171,0.61195 5.28814,0.48707 8.375,-1.625 2.11207,-3.08686 2.23695,-4.70329 1.625,-8.375 -1.5,-2.5 -1.5,-2.5 -4,-4 -3.67171,-0.61195 -5.28814,-0.48706 -8.375,1.625 z"
       fill="#000000"
       id="path4" />
    <path
       d="m 315.4375,273.5 c 5.82486,3.51997 10.54467,8.98963 12.5625,15.5 0.80514,7.83608 1.1246,15.61923 -4,22 -4.80449,5.04521 -9.16177,8.60563 -16.26953,9.33594 -8.51624,0.0939 -14.40643,-0.21821 -20.69531,-6.20703 -6.38183,-6.90386 -7.51558,-12.33059 -7.33985,-21.6836 0.69529,-7.86212 4.35223,-11.9949 10.20703,-17 7.06438,-4.86744 17.6912,-5.42126 25.53516,-1.94531 z m -16.8125,17.125 c -2.11207,3.08686 -2.23695,4.70329 -1.625,8.375 1.5,2.5 1.5,2.5 4,4 3.67171,0.61195 5.28814,0.48707 8.375,-1.625 2.11207,-3.08686 2.23695,-4.70329 1.625,-8.375 -1.5,-2.5 -1.5,-2.5 -4,-4 -3.67171,-0.61195 -5.28814,-0.48706 -8.375,1.625 z"
       fill="#000000"
       id="path5" />
  </g>
</svg>
